<mxfile host="app.diagrams.net" modified="2023-05-24T09:14:41.289Z" agent="Mozilla/5.0 (Windows NT 10.0; Win64; x64) AppleWebKit/537.36 (KHTML, like Gecko) Chrome/113.0.0.0 Safari/537.36" etag="uzPRM82GvUx6AirpNpQI" version="21.3.3" type="device">
  <diagram id="HwoVQ2jL-Mxg6vBff7v_" name="Страница 1">
    <mxGraphModel dx="1607" dy="562" grid="0" gridSize="10" guides="1" tooltips="1" connect="1" arrows="1" fold="1" page="0" pageScale="1" pageWidth="827" pageHeight="1169" math="0" shadow="0">
      <root>
        <mxCell id="0" />
        <mxCell id="1" parent="0" />
        <mxCell id="9VZ5EnYViZolidfuCH4H-1" value="" style="rounded=0;whiteSpace=wrap;html=1;fontFamily=Times New Roman;fontSize=20;" parent="1" vertex="1">
          <mxGeometry x="-281" y="264" width="680" height="500" as="geometry" />
        </mxCell>
        <mxCell id="9VZ5EnYViZolidfuCH4H-2" value="" style="rounded=0;whiteSpace=wrap;html=1;fontFamily=Times New Roman;fontSize=20;" parent="1" vertex="1">
          <mxGeometry x="217" y="335" width="167" height="101" as="geometry" />
        </mxCell>
        <mxCell id="9VZ5EnYViZolidfuCH4H-3" value="&lt;font style=&quot;font-size: 20px;&quot;&gt;Server&lt;/font&gt;" style="text;html=1;strokeColor=none;fillColor=none;align=center;verticalAlign=middle;whiteSpace=wrap;rounded=0;fontFamily=Times New Roman;fontSize=20;" parent="1" vertex="1">
          <mxGeometry x="-273" y="270" width="60" height="30" as="geometry" />
        </mxCell>
        <mxCell id="9VZ5EnYViZolidfuCH4H-4" value="" style="rounded=0;whiteSpace=wrap;html=1;fontFamily=Times New Roman;fontSize=20;" parent="1" vertex="1">
          <mxGeometry x="-18" y="335" width="167" height="101" as="geometry" />
        </mxCell>
        <mxCell id="9VZ5EnYViZolidfuCH4H-5" value="" style="rounded=0;whiteSpace=wrap;html=1;fontFamily=Times New Roman;fontSize=20;" parent="1" vertex="1">
          <mxGeometry x="-252" y="335" width="167" height="101" as="geometry" />
        </mxCell>
        <mxCell id="9VZ5EnYViZolidfuCH4H-6" value="" style="rounded=0;whiteSpace=wrap;html=1;fontFamily=Times New Roman;fontSize=20;" parent="1" vertex="1">
          <mxGeometry x="-252" y="498" width="167" height="101" as="geometry" />
        </mxCell>
        <mxCell id="9VZ5EnYViZolidfuCH4H-7" value="" style="rounded=0;whiteSpace=wrap;html=1;fontFamily=Times New Roman;fontSize=20;" parent="1" vertex="1">
          <mxGeometry x="-18" y="498" width="167" height="101" as="geometry" />
        </mxCell>
        <mxCell id="9VZ5EnYViZolidfuCH4H-8" value="" style="endArrow=classic;html=1;rounded=0;fontFamily=Times New Roman;fontSize=20;" parent="1" source="9VZ5EnYViZolidfuCH4H-2" target="9VZ5EnYViZolidfuCH4H-4" edge="1">
          <mxGeometry width="50" height="50" relative="1" as="geometry">
            <mxPoint x="36" y="522" as="sourcePoint" />
            <mxPoint x="86" y="472" as="targetPoint" />
          </mxGeometry>
        </mxCell>
        <mxCell id="9VZ5EnYViZolidfuCH4H-9" value="" style="endArrow=classic;html=1;rounded=0;fontFamily=Times New Roman;fontSize=20;" parent="1" source="9VZ5EnYViZolidfuCH4H-4" target="9VZ5EnYViZolidfuCH4H-5" edge="1">
          <mxGeometry width="50" height="50" relative="1" as="geometry">
            <mxPoint x="-73" y="396" as="sourcePoint" />
            <mxPoint x="-8" y="396" as="targetPoint" />
          </mxGeometry>
        </mxCell>
        <mxCell id="9VZ5EnYViZolidfuCH4H-10" value="" style="endArrow=classic;html=1;rounded=0;fontFamily=Times New Roman;fontSize=20;" parent="1" source="9VZ5EnYViZolidfuCH4H-5" target="9VZ5EnYViZolidfuCH4H-6" edge="1">
          <mxGeometry width="50" height="50" relative="1" as="geometry">
            <mxPoint x="-533" y="406" as="sourcePoint" />
            <mxPoint x="-468" y="406" as="targetPoint" />
          </mxGeometry>
        </mxCell>
        <mxCell id="9VZ5EnYViZolidfuCH4H-11" value="" style="endArrow=classic;html=1;rounded=0;fontFamily=Times New Roman;fontSize=20;" parent="1" source="9VZ5EnYViZolidfuCH4H-6" target="9VZ5EnYViZolidfuCH4H-7" edge="1">
          <mxGeometry width="50" height="50" relative="1" as="geometry">
            <mxPoint x="-53" y="416" as="sourcePoint" />
            <mxPoint x="12" y="416" as="targetPoint" />
          </mxGeometry>
        </mxCell>
        <mxCell id="9VZ5EnYViZolidfuCH4H-12" value="&lt;font style=&quot;font-size: 20px;&quot;&gt;&lt;span style=&quot;font-size: 20px;&quot;&gt;Модуль маршрутизации запросов&lt;/span&gt;&lt;/font&gt;" style="text;html=1;strokeColor=none;fillColor=none;align=center;verticalAlign=middle;whiteSpace=wrap;rounded=0;fontFamily=Times New Roman;fontSize=20;" parent="1" vertex="1">
          <mxGeometry x="217" y="335" width="167" height="101" as="geometry" />
        </mxCell>
        <mxCell id="9VZ5EnYViZolidfuCH4H-13" value="&lt;font style=&quot;font-size: 20px;&quot;&gt;Модуль &lt;i style=&quot;font-size: 20px;&quot;&gt;middleware&lt;/i&gt;&lt;/font&gt;" style="text;html=1;strokeColor=none;fillColor=none;align=center;verticalAlign=middle;whiteSpace=wrap;rounded=0;fontFamily=Times New Roman;fontSize=20;" parent="1" vertex="1">
          <mxGeometry x="-18" y="335" width="167" height="101" as="geometry" />
        </mxCell>
        <mxCell id="9VZ5EnYViZolidfuCH4H-14" value="&lt;font style=&quot;font-size: 20px;&quot;&gt;Модуль обработки запросов&lt;/font&gt;" style="text;html=1;strokeColor=none;fillColor=none;align=center;verticalAlign=middle;whiteSpace=wrap;rounded=0;fontFamily=Times New Roman;fontSize=20;" parent="1" vertex="1">
          <mxGeometry x="-252" y="335" width="167" height="101" as="geometry" />
        </mxCell>
        <mxCell id="9VZ5EnYViZolidfuCH4H-15" value="&lt;font style=&quot;font-size: 20px;&quot;&gt;Модуль сервисов&lt;/font&gt;" style="text;html=1;strokeColor=none;fillColor=none;align=center;verticalAlign=middle;whiteSpace=wrap;rounded=0;fontFamily=Times New Roman;fontSize=20;" parent="1" vertex="1">
          <mxGeometry x="-252" y="498" width="167" height="101" as="geometry" />
        </mxCell>
        <mxCell id="9VZ5EnYViZolidfuCH4H-16" value="&lt;font style=&quot;font-size: 20px;&quot;&gt;Модуль моделей&lt;/font&gt;" style="text;html=1;strokeColor=none;fillColor=none;align=center;verticalAlign=middle;whiteSpace=wrap;rounded=0;fontFamily=Times New Roman;fontSize=20;" parent="1" vertex="1">
          <mxGeometry x="-18" y="498" width="167" height="101" as="geometry" />
        </mxCell>
        <mxCell id="9VZ5EnYViZolidfuCH4H-17" value="&lt;blockquote style=&quot;margin: 0px 0px 0px 40px; border: none; padding: 0px; font-size: 20px;&quot;&gt;Node.js 18.2.1&lt;br style=&quot;font-size: 20px;&quot;&gt;&lt;span style=&quot;font-size: 20px;&quot;&gt;Express 4.18.2&lt;br style=&quot;font-size: 20px;&quot;&gt;&lt;/span&gt;&lt;span style=&quot;font-size: 20px;&quot;&gt;Mongoose 7.0.3&lt;/span&gt;&lt;/blockquote&gt;" style="text;html=1;strokeColor=none;fillColor=none;align=left;verticalAlign=middle;whiteSpace=wrap;rounded=0;fontFamily=Times New Roman;fontSize=20;" parent="1" vertex="1">
          <mxGeometry x="-281" y="663" width="192" height="101" as="geometry" />
        </mxCell>
        <mxCell id="9VZ5EnYViZolidfuCH4H-18" value="" style="rounded=0;whiteSpace=wrap;html=1;fontFamily=Times New Roman;fontSize=20;" parent="1" vertex="1">
          <mxGeometry x="477" y="264" width="680" height="500" as="geometry" />
        </mxCell>
        <mxCell id="9VZ5EnYViZolidfuCH4H-19" value="" style="rounded=0;whiteSpace=wrap;html=1;fontFamily=Times New Roman;fontSize=20;" parent="1" vertex="1">
          <mxGeometry x="975" y="335" width="167" height="101" as="geometry" />
        </mxCell>
        <mxCell id="9VZ5EnYViZolidfuCH4H-20" value="&lt;font style=&quot;font-size: 20px;&quot;&gt;Client&lt;/font&gt;" style="text;html=1;strokeColor=none;fillColor=none;align=center;verticalAlign=middle;whiteSpace=wrap;rounded=0;fontFamily=Times New Roman;fontSize=20;" parent="1" vertex="1">
          <mxGeometry x="485" y="270" width="60" height="30" as="geometry" />
        </mxCell>
        <mxCell id="9VZ5EnYViZolidfuCH4H-21" value="" style="rounded=0;whiteSpace=wrap;html=1;fontFamily=Times New Roman;fontSize=20;" parent="1" vertex="1">
          <mxGeometry x="733.5" y="335" width="167" height="101" as="geometry" />
        </mxCell>
        <mxCell id="9VZ5EnYViZolidfuCH4H-22" value="" style="rounded=0;whiteSpace=wrap;html=1;fontFamily=Times New Roman;fontSize=20;" parent="1" vertex="1">
          <mxGeometry x="733.5" y="498" width="167" height="101" as="geometry" />
        </mxCell>
        <mxCell id="9VZ5EnYViZolidfuCH4H-23" value="" style="rounded=0;whiteSpace=wrap;html=1;fontFamily=Times New Roman;fontSize=20;" parent="1" vertex="1">
          <mxGeometry x="506" y="498" width="167" height="101" as="geometry" />
        </mxCell>
        <mxCell id="9VZ5EnYViZolidfuCH4H-24" value="" style="rounded=0;whiteSpace=wrap;html=1;fontFamily=Times New Roman;fontSize=20;" parent="1" vertex="1">
          <mxGeometry x="975" y="498" width="167" height="101" as="geometry" />
        </mxCell>
        <mxCell id="9VZ5EnYViZolidfuCH4H-25" value="" style="endArrow=classic;html=1;rounded=0;fontFamily=Times New Roman;fontSize=20;" parent="1" source="9VZ5EnYViZolidfuCH4H-19" target="9VZ5EnYViZolidfuCH4H-21" edge="1">
          <mxGeometry width="50" height="50" relative="1" as="geometry">
            <mxPoint x="794" y="522" as="sourcePoint" />
            <mxPoint x="844" y="472" as="targetPoint" />
          </mxGeometry>
        </mxCell>
        <mxCell id="9VZ5EnYViZolidfuCH4H-26" value="" style="endArrow=classic;html=1;rounded=0;fontFamily=Times New Roman;fontSize=20;" parent="1" source="9VZ5EnYViZolidfuCH4H-21" target="9VZ5EnYViZolidfuCH4H-22" edge="1">
          <mxGeometry width="50" height="50" relative="1" as="geometry">
            <mxPoint x="685" y="396" as="sourcePoint" />
            <mxPoint x="750" y="396" as="targetPoint" />
          </mxGeometry>
        </mxCell>
        <mxCell id="9VZ5EnYViZolidfuCH4H-27" value="" style="endArrow=classic;html=1;rounded=0;fontFamily=Times New Roman;fontSize=20;" parent="1" source="9VZ5EnYViZolidfuCH4H-22" target="9VZ5EnYViZolidfuCH4H-23" edge="1">
          <mxGeometry width="50" height="50" relative="1" as="geometry">
            <mxPoint x="225" y="406" as="sourcePoint" />
            <mxPoint x="290" y="406" as="targetPoint" />
          </mxGeometry>
        </mxCell>
        <mxCell id="9VZ5EnYViZolidfuCH4H-28" value="" style="endArrow=classic;html=1;rounded=0;fontFamily=Times New Roman;fontSize=20;" parent="1" source="9VZ5EnYViZolidfuCH4H-31" target="9VZ5EnYViZolidfuCH4H-24" edge="1">
          <mxGeometry width="50" height="50" relative="1" as="geometry">
            <mxPoint x="705" y="416" as="sourcePoint" />
            <mxPoint x="770" y="416" as="targetPoint" />
          </mxGeometry>
        </mxCell>
        <mxCell id="9VZ5EnYViZolidfuCH4H-29" value="&lt;font style=&quot;font-size: 20px;&quot;&gt;&lt;span style=&quot;font-size: 20px;&quot;&gt;Модуль отправки запросов&lt;/span&gt;&lt;/font&gt;" style="text;html=1;strokeColor=none;fillColor=none;align=center;verticalAlign=middle;whiteSpace=wrap;rounded=0;fontFamily=Times New Roman;fontSize=20;" parent="1" vertex="1">
          <mxGeometry x="975" y="335" width="167" height="101" as="geometry" />
        </mxCell>
        <mxCell id="9VZ5EnYViZolidfuCH4H-30" value="&lt;font style=&quot;font-size: 20px;&quot;&gt;Модуль менеджера состояний&lt;/font&gt;" style="text;html=1;strokeColor=none;fillColor=none;align=center;verticalAlign=middle;whiteSpace=wrap;rounded=0;fontFamily=Times New Roman;fontSize=20;" parent="1" vertex="1">
          <mxGeometry x="733.5" y="335" width="167" height="101" as="geometry" />
        </mxCell>
        <mxCell id="9VZ5EnYViZolidfuCH4H-31" value="&lt;font style=&quot;font-size: 20px;&quot;&gt;Модуль компонентов&lt;/font&gt;" style="text;html=1;strokeColor=none;fillColor=none;align=center;verticalAlign=middle;whiteSpace=wrap;rounded=0;fontFamily=Times New Roman;fontSize=20;" parent="1" vertex="1">
          <mxGeometry x="733.5" y="498" width="167" height="101" as="geometry" />
        </mxCell>
        <mxCell id="9VZ5EnYViZolidfuCH4H-32" value="&lt;font style=&quot;font-size: 20px;&quot;&gt;Модуль Страниц&lt;/font&gt;" style="text;html=1;strokeColor=none;fillColor=none;align=center;verticalAlign=middle;whiteSpace=wrap;rounded=0;fontFamily=Times New Roman;fontSize=20;" parent="1" vertex="1">
          <mxGeometry x="506" y="498" width="167" height="101" as="geometry" />
        </mxCell>
        <mxCell id="9VZ5EnYViZolidfuCH4H-33" value="&lt;font style=&quot;font-size: 20px;&quot;&gt;Модуль навигации&lt;/font&gt;" style="text;html=1;strokeColor=none;fillColor=none;align=center;verticalAlign=middle;whiteSpace=wrap;rounded=0;fontFamily=Times New Roman;fontSize=20;" parent="1" vertex="1">
          <mxGeometry x="975" y="498" width="167" height="101" as="geometry" />
        </mxCell>
        <mxCell id="9VZ5EnYViZolidfuCH4H-34" value="&lt;blockquote style=&quot;margin: 0px 0px 0px 40px; border: none; padding: 0px; font-size: 20px;&quot;&gt;React 18.2.0&lt;/blockquote&gt;&lt;blockquote style=&quot;margin: 0px 0px 0px 40px; border: none; padding: 0px; font-size: 20px;&quot;&gt;Redux 4.2.1&lt;/blockquote&gt;&lt;blockquote style=&quot;margin: 0px 0px 0px 40px; border: none; padding: 0px; font-size: 20px;&quot;&gt;TypeScript 4.9.5&lt;/blockquote&gt;&lt;blockquote style=&quot;margin: 0px 0px 0px 40px; border: none; padding: 0px; font-size: 20px;&quot;&gt;Axios 1.3.5&lt;/blockquote&gt;" style="text;html=1;strokeColor=none;fillColor=none;align=left;verticalAlign=middle;whiteSpace=wrap;rounded=0;fontFamily=Times New Roman;fontSize=20;" parent="1" vertex="1">
          <mxGeometry x="477" y="663" width="205" height="101" as="geometry" />
        </mxCell>
        <mxCell id="9VZ5EnYViZolidfuCH4H-35" value="" style="endArrow=classic;html=1;rounded=0;startArrow=classic;startFill=1;fontFamily=Times New Roman;fontSize=20;" parent="1" source="9VZ5EnYViZolidfuCH4H-1" target="9VZ5EnYViZolidfuCH4H-18" edge="1">
          <mxGeometry width="50" height="50" relative="1" as="geometry">
            <mxPoint x="-75" y="559" as="sourcePoint" />
            <mxPoint x="-8" y="559" as="targetPoint" />
          </mxGeometry>
        </mxCell>
        <mxCell id="9VZ5EnYViZolidfuCH4H-36" value="" style="strokeWidth=1;html=1;shape=mxgraph.flowchart.database;whiteSpace=wrap;fontFamily=Times New Roman;fontSize=20;" parent="1" vertex="1">
          <mxGeometry x="-181.5" y="876" width="481" height="186" as="geometry" />
        </mxCell>
        <mxCell id="9VZ5EnYViZolidfuCH4H-37" value="&lt;div style=&quot;font-size: 20px;&quot;&gt;&lt;span style=&quot;background-color: initial; font-size: 20px;&quot;&gt;&lt;font style=&quot;font-size: 20px;&quot;&gt;MongoDB 6.0&lt;/font&gt;&lt;/span&gt;&lt;/div&gt;" style="text;html=1;strokeColor=none;fillColor=none;align=center;verticalAlign=middle;whiteSpace=wrap;rounded=0;fontFamily=Times New Roman;fontSize=20;" parent="1" vertex="1">
          <mxGeometry x="-64.5" y="950" width="247" height="99" as="geometry" />
        </mxCell>
        <mxCell id="9VZ5EnYViZolidfuCH4H-38" value="" style="endArrow=classic;html=1;rounded=0;startArrow=classic;startFill=1;fontFamily=Times New Roman;fontSize=20;" parent="1" source="9VZ5EnYViZolidfuCH4H-1" target="9VZ5EnYViZolidfuCH4H-36" edge="1">
          <mxGeometry width="50" height="50" relative="1" as="geometry">
            <mxPoint x="409" y="524" as="sourcePoint" />
            <mxPoint x="487" y="524" as="targetPoint" />
          </mxGeometry>
        </mxCell>
        <mxCell id="9VZ5EnYViZolidfuCH4H-39" value="&lt;font style=&quot;font-size: 20px;&quot;&gt;TCP&lt;/font&gt;" style="text;html=1;align=center;verticalAlign=middle;resizable=0;points=[];autosize=1;strokeColor=none;fillColor=none;fontFamily=Times New Roman;fontSize=20;" parent="1" vertex="1">
          <mxGeometry x="71" y="801" width="55" height="36" as="geometry" />
        </mxCell>
        <mxCell id="BGlbsp0C4XndCYBGZJ5v-1" value="&lt;font style=&quot;font-size: 20px;&quot;&gt;&lt;span style=&quot;font-size: 20px;&quot;&gt;HTTP&lt;/span&gt;&lt;/font&gt;" style="text;html=1;align=center;verticalAlign=middle;resizable=0;points=[];autosize=1;strokeColor=none;fillColor=none;fontFamily=Times New Roman;fontSize=20;" parent="1" vertex="1">
          <mxGeometry x="405" y="480" width="68" height="36" as="geometry" />
        </mxCell>
      </root>
    </mxGraphModel>
  </diagram>
</mxfile>
